<svg xmlns="http://www.w3.org/2000/svg" viewBox="-28 -28 3439 1051" width="1720" height="526"><title>Containers+groups LR / elk include</title><rect x="-28" y="-28" width="3439" height="1051" fill="#fff"/><rect x="12" y="343" width="400" height="400" fill="#dbe7ff" stroke="#1f4e9c" stroke-width="2"/><text x="24" y="543" font-family="sans-serif" font-size="22" fill="#111">Personal Banking Customer</text><rect x="2921" y="297" width="450" height="300" fill="#dbe7ff" stroke="#1f4e9c" stroke-width="2"/><text x="2933" y="447" font-family="sans-serif" font-size="22" fill="#111">Mainframe Banking System</text><rect x="561" y="12" width="2190" height="821" fill="none" stroke="#888" stroke-width="2" stroke-dasharray="12 8"/><text x="573" y="40" font-family="sans-serif" font-size="26" fill="#555">Internet Banking System</text><rect x="2921" y="683" width="450" height="300" fill="#dbe7ff" stroke="#1f4e9c" stroke-width="2"/><text x="2933" y="833" font-family="sans-serif" font-size="22" fill="#111">E-mail System</text><rect x="1666" y="87" width="1030" height="475" fill="none" stroke="#888" stroke-width="2" stroke-dasharray="12 8"/><text x="1678" y="115" font-family="sans-serif" font-size="26" fill="#555">Backend</text><rect x="616" y="62" width="1020" height="721" fill="none" stroke="#888" stroke-width="2" stroke-dasharray="12 8"/><text x="628" y="90" font-family="sans-serif" font-size="26" fill="#555">Channels</text><rect x="2196" y="137" width="450" height="300" fill="#dbe7ff" stroke="#1f4e9c" stroke-width="2"/><text x="2208" y="287" font-family="sans-serif" font-size="22" fill="#111">Database</text><rect x="1716" y="212" width="450" height="300" fill="#dbe7ff" stroke="#1f4e9c" stroke-width="2"/><text x="1728" y="362" font-family="sans-serif" font-size="22" fill="#111">API Application</text><rect x="1136" y="162" width="450" height="300" fill="#dbe7ff" stroke="#1f4e9c" stroke-width="2"/><text x="1148" y="312" font-family="sans-serif" font-size="22" fill="#111">Single-Page Application</text><rect x="666" y="433" width="450" height="300" fill="#dbe7ff" stroke="#1f4e9c" stroke-width="2"/><text x="678" y="583" font-family="sans-serif" font-size="22" fill="#111">Mobile App</text><rect x="666" y="112" width="450" height="300" fill="#dbe7ff" stroke="#1f4e9c" stroke-width="2"/><text x="678" y="262" font-family="sans-serif" font-size="22" fill="#111">Web Application</text><polyline points="412,503 556,422 1126,422 1126,362 1136,362" fill="none" stroke="#c0392b" stroke-width="3"/><polyline points="412,423 556,262 666,262" fill="none" stroke="#c0392b" stroke-width="3"/><polyline points="2921,883 556,883 412,663" fill="none" stroke="#c0392b" stroke-width="3"/><polyline points="412,583 666,583" fill="none" stroke="#c0392b" stroke-width="3"/><polyline points="2166,362 2186,362 2186,447 2921,447" fill="none" stroke="#c0392b" stroke-width="3"/><polyline points="2166,437 2176,437 2176,458 2756,458 2921,783" fill="none" stroke="#c0392b" stroke-width="3"/><polyline points="1116,583 1651,583 1651,412 1716,412" fill="none" stroke="#c0392b" stroke-width="3"/><polyline points="1586,312 1716,312" fill="none" stroke="#c0392b" stroke-width="3"/><polyline points="2166,287 2196,287" fill="none" stroke="#c0392b" stroke-width="3"/><polyline points="1116,262 1136,262" fill="none" stroke="#c0392b" stroke-width="3"/></svg>