<svg xmlns="http://www.w3.org/2000/svg" viewBox="-40 35 4380 1630" width="2190" height="815"><title>Containers+groups LR / dagre</title><rect x="-40" y="35" width="4380" height="1630" fill="#fff"/><rect x="0" y="400" width="400" height="400" fill="#dbe7ff" stroke="#1f4e9c" stroke-width="2"/><text x="12" y="600" font-family="sans-serif" font-size="22" fill="#111">Personal Banking Customer</text><rect x="3750" y="975" width="450" height="300" fill="#dbe7ff" stroke="#1f4e9c" stroke-width="2"/><text x="3762" y="1125" font-family="sans-serif" font-size="22" fill="#111">Mainframe Banking System</text><rect x="800" y="75" width="3500" height="850" fill="none" stroke="#888" stroke-width="2" stroke-dasharray="12 8"/><text x="812" y="103" font-family="sans-serif" font-size="26" fill="#555">Internet Banking System</text><rect x="3750" y="1325" width="450" height="300" fill="#dbe7ff" stroke="#1f4e9c" stroke-width="2"/><text x="3762" y="1475" font-family="sans-serif" font-size="22" fill="#111">E-mail System</text><rect x="2750" y="150" width="1500" height="550" fill="none" stroke="#888" stroke-width="2" stroke-dasharray="12 8"/><text x="2762" y="178" font-family="sans-serif" font-size="26" fill="#555">Backend</text><rect x="850" y="125" width="1500" height="750" fill="none" stroke="#888" stroke-width="2" stroke-dasharray="12 8"/><text x="862" y="153" font-family="sans-serif" font-size="26" fill="#555">Channels</text><rect x="3750" y="200" width="450" height="300" fill="#dbe7ff" stroke="#1f4e9c" stroke-width="2"/><text x="3762" y="350" font-family="sans-serif" font-size="22" fill="#111">Database</text><rect x="1850" y="175" width="450" height="300" fill="#dbe7ff" stroke="#1f4e9c" stroke-width="2"/><text x="1862" y="325" font-family="sans-serif" font-size="22" fill="#111">Single-Page Application</text><rect x="1850" y="525" width="450" height="300" fill="#dbe7ff" stroke="#1f4e9c" stroke-width="2"/><text x="1862" y="675" font-family="sans-serif" font-size="22" fill="#111">Mobile App</text><rect x="900" y="250" width="450" height="300" fill="#dbe7ff" stroke="#1f4e9c" stroke-width="2"/><text x="912" y="400" font-family="sans-serif" font-size="22" fill="#111">Web Application</text><rect x="2800" y="350" width="450" height="300" fill="#dbe7ff" stroke="#1f4e9c" stroke-width="2"/><text x="2812" y="500" font-family="sans-serif" font-size="22" fill="#111">API Application</text><polyline points="325,400 450,200 1800,200 1850,222.72727272727275" fill="none" stroke="#c0392b" stroke-width="3"/><polyline points="400,440 450,400 900,400" fill="none" stroke="#c0392b" stroke-width="3"/><polyline points="2300,675 2750,675 2800,643.1818181818182" fill="none" stroke="#c0392b" stroke-width="3"/><polyline points="3750,1475 450,1475 257.14285714285717,800" fill="none" stroke="#c0392b" stroke-width="3"/><polyline points="2300,325 2750,325 2800,356.8181818181818" fill="none" stroke="#c0392b" stroke-width="3"/><polyline points="3250,377.27272727272725 3300,350 3750,350" fill="none" stroke="#c0392b" stroke-width="3"/><polyline points="1350,400 1800,400 1850,386.3636363636364" fill="none" stroke="#c0392b" stroke-width="3"/><polyline points="400,660 450,675 1850,675" fill="none" stroke="#c0392b" stroke-width="3"/><polyline points="3250,540.9090909090909 3300,550 3700,550 3903.2608695652175,975" fill="none" stroke="#c0392b" stroke-width="3"/><polyline points="3231.25,650 3300,700 3700,700 3921.7741935483873,1325" fill="none" stroke="#c0392b" stroke-width="3"/></svg>